<?xml version="1.0" standalone="no"?>
<!DOCTYPE svg PUBLIC "-//W3C//DTD SVG 20010904//EN"
 "http://www.w3.org/TR/2001/REC-SVG-20010904/DTD/svg10.dtd">
<svg version="1.0" xmlns="http://www.w3.org/2000/svg"
 width="200.000000pt" height="200.000000pt" viewBox="0 0 200.000000 200.000000"
 preserveAspectRatio="xMidYMid meet">

<g transform="translate(0.000000,200.000000) scale(0.100000,-0.100000)"
fill="#ffffff" stroke="none">
<path d="M1480 1629 c-14 -5 -66 -50 -116 -100 l-90 -90 -75 -6 c-80 -6 -109
-17 -151 -58 -34 -32 -35 -41 -3 -87 14 -20 25 -41 25 -45 0 -5 -18 -27 -41
-48 -26 -27 -38 -46 -35 -58 3 -13 -8 -27 -40 -50 -24 -17 -44 -34 -44 -38 0
-12 -32 -20 -93 -25 -55 -4 -60 -3 -95 31 -20 19 -47 38 -60 41 -16 5 -21 11
-17 25 18 56 -42 142 -109 154 l-33 7 3 59 c2 32 8 68 14 79 21 39 -22 6 -93
-70 -114 -124 -170 -269 -170 -445 0 -211 83 -386 247 -521 69 -57 204 -120
290 -135 88 -15 254 -7 321 16 122 42 240 119 310 203 l29 35 -27 -6 c-20 -6
-29 -3 -37 13 -28 53 -138 79 -187 45 -21 -15 -23 -14 -37 18 -14 34 -59 77
-80 77 -11 0 -47 101 -46 133 0 10 -4 26 -10 36 -7 14 -4 24 10 39 11 12 20
24 20 27 0 3 8 13 18 24 9 10 28 32 41 49 14 17 28 29 33 26 4 -3 30 16 57 41
29 28 52 42 56 35 3 -5 25 -20 47 -31 l40 -20 25 23 c39 36 56 77 63 156 l7
73 91 93 c50 51 96 105 102 120 5 15 10 59 10 97 l0 69 -72 -1 c-40 0 -84 -5
-98 -10z m138 -8 c10 -6 -4 -23 -53 -65 -36 -31 -80 -63 -96 -71 -16 -9 -29
-18 -29 -21 0 -2 10 0 21 7 25 13 20 -1 -14 -38 -21 -23 -16 -43 11 -43 17 0
8 -6 -93 -65 l-50 -28 39 43 c39 43 39 43 16 52 -23 8 -23 9 -4 24 18 14 18
15 -3 4 -28 -13 -39 -30 -19 -30 37 0 20 -27 -76 -126 -87 -89 -104 -103 -114
-90 -16 23 -24 20 -69 -24 l-41 -41 -19 21 c-18 20 -18 21 26 66 37 38 42 47
31 62 -28 40 -43 75 -38 87 13 34 83 66 157 72 l74 6 96 93 c59 57 107 95 125
99 16 4 34 8 39 10 20 7 70 4 83 -4z m-460 -474 l22 -23 -41 -40 c-28 -28 -38
-45 -35 -59 10 -36 -127 -142 -172 -133 -25 5 -17 72 13 104 14 15 30 39 37
55 7 16 19 29 25 29 7 0 13 5 13 10 0 6 8 10 18 10 10 0 33 16 52 35 19 19 37
35 40 35 4 0 16 -10 28 -23z m-678 -57 c0 -5 -4 -10 -10 -10 -5 0 -10 5 -10
10 0 6 5 10 10 10 6 0 10 -4 10 -10z m50 -251 c0 -24 -23 -21 -28 4 -2 10 3
17 12 17 10 0 16 -9 16 -21z m420 -69 c0 -5 -4 -10 -10 -10 -5 0 -10 5 -10 10
0 6 5 10 10 10 6 0 10 -4 10 -10z m-282 -51 l27 -2 -27 -4 c-22 -3 -28 -10
-29 -31 l-2 -27 -4 28 c-3 21 -10 27 -31 28 l-27 2 28 4 c21 3 27 10 28 31 l2
27 4 -27 c3 -22 10 -28 31 -29z"/>
<path d="M1404 1444 c-18 -14 -18 -15 4 -4 12 6 22 13 22 15 0 8 -5 6 -26 -11z"/>
<path d="M1045 1560 c3 -5 8 -10 11 -10 2 0 4 5 4 10 0 6 -5 10 -11 10 -5 0
-7 -4 -4 -10z"/>
<path d="M816 1503 c-8 -42 -9 -43 -50 -44 l-41 -1 41 -9 c36 -8 42 -14 51
-47 l10 -37 2 37 c1 35 3 37 44 46 l42 10 -42 1 c-42 1 -42 1 -45 44 l-4 42
-8 -42z"/>
<path d="M804 1149 c-10 -17 13 -36 27 -22 12 12 4 33 -11 33 -5 0 -12 -5 -16
-11z"/>
<path d="M1750 1080 c0 -5 5 -10 11 -10 5 0 7 5 4 10 -3 6 -8 10 -11 10 -2 0
-4 -4 -4 -10z"/>
<path d="M1550 1040 c0 -5 5 -10 10 -10 6 0 10 5 10 10 0 6 -4 10 -10 10 -5 0
-10 -4 -10 -10z"/>
<path d="M1290 835 c0 -8 5 -15 10 -15 6 0 10 7 10 15 0 8 -4 15 -10 15 -5 0
-10 -7 -10 -15z"/>
<path d="M1530 760 c0 -5 5 -10 10 -10 6 0 10 5 10 10 0 6 -4 10 -10 10 -5 0
-10 -4 -10 -10z"/>
</g>
</svg>
